# xmcd
#
# Track frame offsets:
#	150
#	20115
#	42668
#	65652
#	84945
#	110962
#	137675
#	162430
#	190987
#	207945
#
# Disc length: 3140 seconds
#
# Revision: 1
# Processed by: cddbd v1.5.2PL0 Copyright (c) Steve Scherf et al.
# Submitted via: EZCDAudioConverter 6.0.2.1
#
DISCID=970c420a
DTITLE=Mary Chapin Carpenter - Songs From the Movie
DYEAR=2014
DGENRE=Country
TTITLE0=On and On It Goes
TTITLE1=I Am a Town
TTITLE2=Between Here and Gone
TTITLE3=Ideas Are Like Stars
TTITLE4=The Dreaming Road
TTITLE5=Only a Dream
TTITLE6=Come On Come On
TTITLE7=Mrs. Hemingway
TTITLE8=Where Time Stands Still
TTITLE9=Goodnight America
EXTD=
EXTT0=
EXTT1=
EXTT2=
EXTT3=
EXTT4=
EXTT5=
EXTT6=
EXTT7=
EXTT8=
EXTT9=
PLAYORDER=
